# xmcd
#
# Track frame offsets:
#	150
#	10479
#	21383
#	31860
#	44064
#	56544
#	66807
#	78199
#	87931
#	100900
#	113408
#	123941
#	136973
#	153604
#	164608
#	174898
#
# Disc length: 2471 seconds
# Revision: 0
# Processed by: cddbd v1.5.2PL0 Copyright (c) Steve Scherf et al.
# Submitted via: dBpowerAMP V12.0
#
DISCID=ca09a510
DTITLE=Various Artist - Hillbillies In Hell - Volume 777
DYEAR=1900
DGENRE=
TTITLE0=Hank Williams - The Angel Of Death
TTITLE1=Hank Williams Jr. - Endless Sleep
TTITLE2=Tex Williams - Smokey Hollow
TTITLE3=The Willis Brothers - Ax Cabin
TTITLE4=Bill Browning and The Dark Hollow Boys - Marbone Swamp
TTITLE5=Bobby Griggs - Dead Man's Cave
TTITLE6=Clyde Moody - Whispering Pines
TTITLE7=The Burton Family - I Saw The Light
TTITLE8=The Louvin Brothers - Satan's Jeweled Crown
TTITLE9=Bobby Grove - There Ain't No Grave Gonna’ Hold My Body Down
TTITLE10=Durwood Daily - East Dallas Dagger
TTITLE11=Tex Ritter - Dark Day In Dallas
TTITLE12=Howard Vokes - Mommy Please Stay Home With Me
TTITLE13=Cowboy Copas - Bury Me Face Down
TTITLE14=Tillman Franks Singers - When The World's On Fire
TTITLE15=Sunshine Boys Quartet - No Hiding Place
EXTD=
EXTT0=
EXTT1=
EXTT2=
EXTT3=
EXTT4=
EXTT5=
EXTT6=
EXTT7=
EXTT8=
EXTT9=
EXTT10=
EXTT11=
EXTT12=
EXTT13=
EXTT14=
EXTT15=
PLAYORDER=
